<svg width="59" height="13" viewBox="0 0 59 13" fill="none" xmlns="http://www.w3.org/2000/svg">
<path d="M4.81194 10.521C5.6336 10.6563 6.42144 10.7578 7.17544 10.8255C7.92944 10.8932 8.64477 10.927 9.32144 10.927C9.3021 11.0623 9.28277 11.1977 9.26344 11.333C9.25377 11.4683 9.23927 11.6037 9.21994 11.739C8.61094 11.8163 7.9681 11.8792 7.29144 11.9275C6.61477 11.9758 5.91877 12 5.20344 12C4.47844 12 3.7776 11.9758 3.10094 11.9275C2.43394 11.8792 1.79594 11.8163 1.18694 11.739C1.0806 11.043 0.998438 10.289 0.940438 9.477C0.882438 8.65533 0.853438 7.80467 0.853438 6.925C0.853438 6.03567 0.882438 5.185 0.940438 4.373C0.998438 3.561 1.0806 2.807 1.18694 2.111C1.79594 2.03367 2.43877 1.97083 3.11544 1.9225C3.7921 1.87417 4.4881 1.85 5.20344 1.85C5.92844 1.85 6.62444 1.87417 7.29144 1.9225C7.9681 1.97083 8.61094 2.03367 9.21994 2.111C9.23927 2.24633 9.25377 2.38167 9.26344 2.517C9.28277 2.65233 9.3021 2.78767 9.32144 2.923C8.8671 2.923 8.3741 2.94233 7.84244 2.981C7.31077 3.01967 6.7646 3.07283 6.20394 3.1405C5.64327 3.20817 5.07294 3.29517 4.49294 3.4015C3.9226 3.49817 3.36194 3.60933 2.81094 3.735C2.69494 4.20867 2.5886 4.7065 2.49194 5.2285C2.39527 5.7505 2.30827 6.27733 2.23094 6.809C2.16327 7.34067 2.10527 7.87233 2.05694 8.404C2.0086 8.926 1.96994 9.42383 1.94094 9.8975C2.3856 10.0135 2.84477 10.1247 3.31844 10.231C3.80177 10.3373 4.2996 10.434 4.81194 10.521ZM14.4408 10.521C15.2625 10.6563 16.0503 10.7578 16.8043 10.8255C17.5583 10.8932 18.2737 10.927 18.9503 10.927C18.931 11.0623 18.9117 11.1977 18.8923 11.333C18.8827 11.4683 18.8682 11.6037 18.8488 11.739C18.2398 11.8163 17.597 11.8792 16.9203 11.9275C16.2437 11.9758 15.5477 12 14.8323 12C14.1073 12 13.4065 11.9758 12.7298 11.9275C12.0628 11.8792 11.4248 11.8163 10.8158 11.739C10.7095 11.043 10.6273 10.289 10.5693 9.477C10.5113 8.65533 10.4823 7.80467 10.4823 6.925C10.4823 6.03567 10.5113 5.185 10.5693 4.373C10.6273 3.561 10.7095 2.807 10.8158 2.111C11.4248 2.03367 12.0677 1.97083 12.7443 1.9225C13.421 1.87417 14.117 1.85 14.8323 1.85C15.5573 1.85 16.2533 1.87417 16.9203 1.9225C17.597 1.97083 18.2398 2.03367 18.8488 2.111C18.8682 2.24633 18.8827 2.38167 18.8923 2.517C18.9117 2.65233 18.931 2.78767 18.9503 2.923C18.496 2.923 18.003 2.94233 17.4713 2.981C16.9397 3.01967 16.3935 3.07283 15.8328 3.1405C15.2722 3.20817 14.7018 3.29517 14.1218 3.4015C13.5515 3.49817 12.9908 3.60933 12.4398 3.735C12.2368 4.58567 12.0628 5.49433 11.9178 6.461C12.4302 6.50933 12.957 6.54317 13.4983 6.5625C14.0397 6.58183 14.5955 6.5915 15.1658 6.5915V7.2585C14.5568 7.2585 13.972 7.273 13.4113 7.302C12.8603 7.32133 12.319 7.35517 11.7873 7.4035C11.6907 8.26383 11.6182 9.09517 11.5698 9.8975C12.0145 10.0135 12.4737 10.1247 12.9473 10.231C13.4307 10.3373 13.9285 10.434 14.4408 10.521ZM16.5433 1.3135C16.495 1.1685 16.4467 1.03317 16.3983 0.907499C16.35 0.772166 16.3017 0.636833 16.2533 0.501499C16.6593 0.520833 17.0557 0.549833 17.4423 0.588499C17.829 0.617499 18.206 0.656166 18.5733 0.704499C18.6313 0.965499 18.6893 1.241 18.7473 1.531C18.0707 1.43433 17.336 1.36183 16.5433 1.3135ZM11.0913 0.704499C11.4587 0.656166 11.8357 0.617499 12.2223 0.588499C12.609 0.549833 13.0053 0.520833 13.4113 0.501499C13.363 0.636833 13.3098 0.772166 13.2518 0.907499C13.2035 1.03317 13.1552 1.1685 13.1068 1.3135C12.3238 1.36183 11.594 1.43433 10.9173 1.531C10.9463 1.386 10.9705 1.24583 10.9898 1.1105C11.0188 0.975166 11.0527 0.839833 11.0913 0.704499ZM28.4778 2.111C28.4971 2.24633 28.5116 2.38167 28.5213 2.517C28.5406 2.65233 28.5599 2.78767 28.5793 2.923C28.1249 2.923 27.6319 2.94233 27.1003 2.981C26.5686 3.01967 26.0224 3.07283 25.4618 3.1405C24.9011 3.20817 24.3308 3.29517 23.7508 3.4015C23.1804 3.49817 22.6198 3.60933 22.0688 3.735C21.9238 4.344 21.7933 4.982 21.6773 5.649C21.5613 6.316 21.4646 6.983 21.3873 7.65C21.3099 8.30733 21.2519 8.95017 21.2133 9.5785C21.1746 10.2068 21.1553 10.7917 21.1553 11.333C21.1553 11.42 21.1553 11.507 21.1553 11.594C21.1649 11.6713 21.1698 11.7487 21.1698 11.826C21.0441 11.8067 20.9184 11.7922 20.7928 11.7825C20.6768 11.7728 20.5608 11.7583 20.4448 11.739C20.3384 11.043 20.2563 10.289 20.1983 9.477C20.1403 8.65533 20.1113 7.80467 20.1113 6.925C20.1113 6.03567 20.1403 5.185 20.1983 4.373C20.2563 3.561 20.3384 2.807 20.4448 2.111C21.0538 2.03367 21.6966 1.97083 22.3733 1.9225C23.0499 1.87417 23.7459 1.85 24.4613 1.85C25.1863 1.85 25.8823 1.87417 26.5493 1.9225C27.2259 1.97083 27.8688 2.03367 28.4778 2.111ZM38.4402 7.5775C37.8118 7.48083 37.1642 7.40833 36.4972 7.36C35.8398 7.31167 35.1487 7.27783 34.4237 7.2585C34.443 9.04683 34.5687 10.6273 34.8007 12H33.3797C33.6117 10.6273 33.7373 9.04683 33.7567 7.2585C33.0317 7.27783 32.3308 7.31167 31.6542 7.36C30.9872 7.39867 30.3492 7.47117 29.7402 7.5775C29.7402 6.5625 29.7643 5.59583 29.8127 4.6775C29.861 3.7495 29.948 2.894 30.0737 2.111C30.4023 2.06267 30.7407 2.024 31.0887 1.995C31.4463 1.95633 31.8088 1.92733 32.1762 1.908C31.9732 2.56533 31.7847 3.28067 31.6107 4.054C31.4463 4.81767 31.3013 5.62 31.1757 6.461C32.0843 6.548 33.0558 6.5915 34.0902 6.5915C34.6315 6.5915 35.1535 6.58183 35.6562 6.5625C36.1588 6.5335 36.6518 6.49483 37.1352 6.4465C37.2318 5.62483 37.2947 4.84667 37.3237 4.112C37.3623 3.37733 37.3817 2.68133 37.3817 2.024C37.5073 2.04333 37.6282 2.05783 37.7442 2.0675C37.8698 2.07717 37.9907 2.09167 38.1067 2.111C38.213 2.749 38.2952 3.44983 38.3532 4.2135C38.4112 4.97717 38.4402 5.77467 38.4402 6.606V7.5775ZM48.2956 6.606C48.2956 7.75633 48.257 8.80517 48.1796 9.7525C48.1023 10.6998 47.9863 11.6085 47.8316 12.4785C47.4836 12.5268 47.126 12.5655 46.7586 12.5945C46.3913 12.6332 46.0095 12.6622 45.6131 12.6815C45.8741 11.9855 46.1061 11.1832 46.3091 10.2745C46.5218 9.36583 46.7055 8.404 46.8601 7.389C45.9418 7.302 44.9703 7.2585 43.9456 7.2585C43.4043 7.2585 42.8775 7.273 42.3651 7.302C41.8625 7.32133 41.3743 7.35517 40.9006 7.4035C40.7266 8.8245 40.6396 10.1343 40.6396 11.333C40.6396 11.7583 40.6541 12.1643 40.6831 12.551C40.5768 12.5413 40.4705 12.5317 40.3641 12.522C40.2675 12.5123 40.166 12.4978 40.0596 12.4785C39.8953 11.5698 39.7745 10.6177 39.6971 9.622C39.6295 8.62633 39.5956 7.50983 39.5956 6.2725C39.8276 6.31117 40.0596 6.345 40.2916 6.374C40.5333 6.403 40.7798 6.432 41.0311 6.461C41.1568 6.345 41.268 6.171 41.3646 5.939C41.4613 5.707 41.5435 5.446 41.6111 5.156C41.6885 4.85633 41.7513 4.54217 41.7996 4.2135C41.8576 3.88483 41.9011 3.5755 41.9301 3.2855C41.9688 2.98583 41.993 2.71517 42.0026 2.4735C42.022 2.22217 42.0316 2.03367 42.0316 1.908C42.3506 1.88867 42.6696 1.87417 42.9886 1.8645C43.3076 1.85483 43.6266 1.85 43.9456 1.85C44.5353 1.85 45.1008 1.86933 45.6421 1.908C46.1835 1.94667 46.7151 1.98533 47.2371 2.024V2.6185C47.2371 3.1985 47.213 3.8075 47.1646 4.4455C47.126 5.0835 47.068 5.7505 46.9906 6.4465C47.4353 6.40783 47.8703 6.34983 48.2956 6.2725V6.606ZM42.1621 6.548C42.7421 6.577 43.3366 6.5915 43.9456 6.5915C44.284 6.5915 44.6126 6.58667 44.9316 6.577C45.2506 6.56733 45.5648 6.55283 45.8741 6.5335C45.9321 6.34983 45.9901 6.13233 46.0481 5.881C46.1158 5.62 46.1786 5.33483 46.2366 5.0255C46.2946 4.71617 46.3526 4.3875 46.4106 4.0395C46.4686 3.6915 46.5218 3.33383 46.5701 2.9665C45.9708 3.01483 45.3473 3.0825 44.6996 3.1695C44.0616 3.2565 43.4188 3.358 42.7711 3.474C42.7711 3.51267 42.7711 3.55133 42.7711 3.59C42.7808 3.62867 42.7856 3.67217 42.7856 3.7205C42.7856 3.91383 42.7663 4.13617 42.7276 4.3875C42.6986 4.63883 42.6551 4.895 42.5971 5.156C42.5391 5.417 42.4715 5.66833 42.3941 5.91C42.3265 6.15167 42.2491 6.36433 42.1621 6.548ZM57.8176 2.111C57.9529 2.865 58.0399 3.63833 58.0786 4.431C58.1269 5.214 58.1511 6.04533 58.1511 6.925C58.1511 7.824 58.1221 8.68433 58.0641 9.506C58.0061 10.3277 57.9239 11.072 57.8176 11.739C57.2086 11.8163 56.5658 11.8792 55.8891 11.9275C55.2124 11.9758 54.5164 12 53.8011 12C53.0761 12 52.3753 11.9758 51.6986 11.9275C51.0316 11.8792 50.3936 11.8163 49.7846 11.739C49.6783 11.043 49.5961 10.289 49.5381 9.477C49.4801 8.65533 49.4511 7.80467 49.4511 6.925C49.4511 6.03567 49.4801 5.185 49.5381 4.373C49.5961 3.561 49.6783 2.807 49.7846 2.111C50.3936 2.03367 51.0364 1.97083 51.7131 1.9225C52.3898 1.87417 53.0858 1.85 53.8011 1.85C54.5261 1.85 55.2221 1.87417 55.8891 1.9225C56.5658 1.97083 57.2086 2.03367 57.8176 2.111ZM53.4096 10.521C53.8639 10.5983 54.3086 10.666 54.7436 10.724C55.1786 10.7723 55.6039 10.8158 56.0196 10.8545C56.1646 10.2648 56.2999 9.63167 56.4256 8.955C56.5609 8.26867 56.6721 7.5775 56.7591 6.8815C56.8558 6.1855 56.9331 5.49917 56.9911 4.8225C57.0491 4.14583 57.0829 3.5175 57.0926 2.9375C56.2419 2.97617 55.3139 3.068 54.3086 3.213C53.3129 3.34833 52.3463 3.52233 51.4086 3.735C51.2926 4.20867 51.1863 4.7065 51.0896 5.2285C50.9929 5.7505 50.9059 6.27733 50.8286 6.809C50.7609 7.34067 50.7029 7.87233 50.6546 8.404C50.6063 8.926 50.5676 9.42383 50.5386 9.8975C50.9833 10.0135 51.4424 10.1247 51.9161 10.231C52.3994 10.3373 52.8973 10.434 53.4096 10.521Z" fill="white" fill-opacity="0.7"/>
</svg>
